<!-- Option 2: Falling figure pattern -->
<svg width="100" height="100" viewBox="0 0 100 100" fill="none" xmlns="http://www.w3.org/2000/svg">
  <pattern id="falling" patternUnits="userSpaceOnUse" width="100" height="100">
    <!-- Falling figure silhouette -->
    <path d="M50,20 C45,25 55,25 50,30 L48,40 L52,40 L50,30" 
          stroke="#374151" stroke-width="1" opacity="0.4" fill="none"/>
    <path d="M46,35 L54,35" stroke="#374151" stroke-width="1" opacity="0.4"/>
    
    <!-- Flame-like elements -->
    <path d="M25,80 C25,60 15,65 25,50 C35,65 25,60 25,80" 
          stroke="#374151" stroke-width="0.8" opacity="0.3" fill="none"/>
    <path d="M75,70 C75,50 65,55 75,40 C85,55 75,50 75,70" 
          stroke="#374151" stroke-width="0.8" opacity="0.3" fill="none"/>
    
    <!-- Stars/particles -->
    <circle cx="20" cy="20" r="1" fill="#374151" opacity="0.5"/>
    <circle cx="80" cy="30" r="1" fill="#374151" opacity="0.5"/>
    <circle cx="40" cy="60" r="1" fill="#374151" opacity="0.5"/>
    <circle cx="70" cy="15" r="1" fill="#374151" opacity="0.5"/>
    <circle cx="15" cy="70" r="1" fill="#374151" opacity="0.5"/>
  </pattern>
  <rect width="100" height="100" fill="url(#falling)"/>
</svg> 